<svg xmlns="http://www.w3.org/2000/svg" width="188" height="35" viewBox="0 0 188 35"><path d="M0 10l7-6.7v13h14v-6L28 3v31.5h-7V22H7v12.5H0V10zm34 .8h7v23.7h-7V10.8zm12-4.2L53 0v34.5h-7v-28zm16.7 28l-5.7-10-3-5 8.6-9.2h7.8l-8.7 9.3 9 14.8h-8zm28.8-21c2 2.2 3 5.3 3 9.3v1.6H77.2c.4 1.5 1.2 2.7 2.2 3.5 1 1 2.4 1.4 4 1.4 1 0 2.2-.2 3.2-.6a8.5 8.5 0 0 0 2.8-2l3.6 3.7a12 12 0 0 1-4.3 3.2c-1.7.7-3.7 1-5.8 1-2.6 0-4.8-.4-6.7-1.4A10.6 10.6 0 0 1 72 29c-1-2-1.5-4-1.5-6.4 0-2.5.5-4.7 1.5-6.5a11 11 0 0 1 4.4-4.3c1.8-1 4-1.5 6.3-1.5 4 0 6.8 1 8.8 3.3zm-3.5 7c0-1.7-.5-3-1.5-4s-2.2-1.4-3.7-1.4-2.7.5-3.7 1.5-1.5 2.2-1.8 3.8H88zm37.6-16.3c2.5 1.4 4.5 3.4 6 5.8 1.4 2.6 2.2 5.3 2.2 8.4 0 3-.8 5.7-2.2 8.2-1.5 2.5-3.5 4.4-6 6-2.5 1.3-5.4 2-8.5 2-3 0-5.8-.7-8.3-2-2.5-1.6-4.5-3.5-6-6-1.4-2.4-2.2-5.2-2.2-8.2 0-3 .8-5.8 2.2-8.3 1.5-2.3 3.5-4.3 6-5.7 2.5-1.4 5.3-2 8.4-2 3.2 0 6 .6 8.6 2zm-13 5.4a9.6 9.6 0 0 0-3.6 3.6c-1 1.6-1.3 3.2-1.3 5 0 2 .4 3.6 1.3 5 1 1.7 2 3 3.5 3.8a9 9 0 0 0 4.7 1.4A8.8 8.8 0 0 0 122 27c1.4-.8 2.5-2 3.3-3.6 1-1.5 1.3-3.2 1.3-5 0-2-.4-3.5-1.3-5-.8-1.6-2-2.8-3.4-3.7a8.8 8.8 0 0 0-4.8-1.3c-1.7 0-3.3.4-4.7 1.3zm45.4 2.5c1.5 1.7 2.3 4 2.3 6.7v15h-6.8V21c0-1.6-.4-2.8-1.2-3.6-1-1-2-1.4-3.5-1.4-1.7 0-3 .6-4 1.8-1 1.2-1.4 2.6-1.4 4.4v12h-6.8V10h6.8v4.2c1.6-3 4.4-4.4 8.2-4.5 2.7 0 4.8.8 6.4 2.5zm26 1c2 2.2 3 5.3 3 9.3V24h-17c.3 1.7 1 3 2 3.7 1.2 1 2.5 1.3 4 1.3 1.2 0 2.3-.2 3.3-.7a8.5 8.5 0 0 0 2.8-2l3.7 3.8a12 12 0 0 1-4.4 3.3c-1.8.7-3.7 1-5.8 1-2.5 0-4.7-.4-6.6-1.5a10.6 10.6 0 0 1-4.4-4.3c-1-1.8-1.5-4-1.5-6.4 0-2.3.6-4.5 1.6-6.4a11 11 0 0 1 4.4-4.3c1.8-1 4-1.6 6.3-1.6 3.8 0 6.8 1.2 8.7 3.4zm-3.4 7c0-1.7-.5-3-1.5-4-.8-1-2-1.4-3.6-1.4-1.5 0-2.7.5-3.7 1.4-1 1-1.6 2.2-2 4h11zM41 0v7h-7z" fill-rule="evenodd"/></svg>