<svg xmlns="http://www.w3.org/2000/svg" width="785.14" height="227.16" viewBox="0 0 785.14 227.16"><title>Hike One logo RGB</title><polygon points="156.13 50.01 170.78 96.02 195.48 63.62 156.13 50.01" fill="#fe595b"/><path d="M111.68,63.55h26V177.18h-26V132.05H76v45.12H50V63.55H76v43.5h35.71Z" fill="#171717"/><path d="M158.75,177.18v-71.1H183.1v71.1Z" fill="#171717"/><path d="M281.3,177.18H253.71l-26-35.8v35.8H203.39V96l24.35-32.44v68L252.09,96h28.41L250.95,136.6Z" fill="#171717"/><path d="M309.55,146.34Q313.76,157.7,329,157.7q9.9,0,15.58-6.17l19.48,11.2q-12,16.72-35.39,16.72-20.45,0-32.71-12.17T283.74,136.6q0-18.34,12.09-30.6t31.09-12.26q17.69,0,29.46,12.26t11.77,30.6a46.45,46.45,0,0,1-1,9.74Zm-.49-18.18H344q-3.57-12.82-17.21-12.82Q312.63,115.33,309.06,128.16Z" fill="#171717"/><path d="M524.29,162.41q-17.21,17-41.88,17t-41.88-17q-17.21-17-17.21-42t17.21-42q17.21-17,41.88-17t41.88,17q17.21,17,17.21,42T524.29,162.41Zm-65.5-17.69q9.5,9.42,23.62,9.41T506,144.71q9.5-9.41,9.49-24.35T506,96q-9.5-9.41-23.62-9.41T458.79,96q-9.5,9.42-9.5,24.35T458.79,144.71Z" fill="#171717"/><path d="M605.29,93.74A29,29,0,0,1,627,102.67q8.68,8.93,8.68,24.67v49.83H611.29V130.92q0-7.14-4-11a14.07,14.07,0,0,0-10.14-3.81q-7,0-11,4.22t-4.06,12.5v44.31H557.73V96h24.35v7.63Q589.38,93.75,605.29,93.74Z" fill="#171717"/><path d="M676.54,146.34Q680.76,157.7,696,157.7q9.9,0,15.58-6.17l19.48,11.2q-12,16.72-35.39,16.72-20.45,0-32.71-12.17T650.73,136.6q0-18.34,12.09-30.6t31.09-12.26q17.69,0,29.46,12.26t11.77,30.6a46.45,46.45,0,0,1-1,9.74Zm-.49-18.18H711q-3.57-12.82-17.21-12.82Q679.63,115.33,676.06,128.16Z" fill="#171717"/></svg>