<svg xmlns="http://www.w3.org/2000/svg" version="1.0" width="682.7" height="682.7" version="1.0" viewBox="0 0 512 512">
  <path d="M246.7 80.2l4.4 10.8c.4 1.4 3.5 9 6.7 16.9l6 14.4 7.7-11.9a1741.2 1741.2 0 0113.5-21c0-.3.9-1.8 2-3.4l2-2.8-6.8-1.7-8.2-2-15.1-3.9c-7.5-2-14.1-3.6-14.7-3.6-.5 0 .6 3.7 2.5 8.2zM178 129.5c0 .6 7.6 19.7 9.5 24 .8 1.6 5.2 12.4 9.9 24l31.1 76.5 29.2 71.5 7.7 19c1.5 3.4 7.1 17 21.7 53a910.4 910.4 0 0010.4 25.3c.4.4 8.5-11.6 8.5-12.5a1699.3 1699.3 0 0022.5-34.5c12.9-20.4 18.5-28.4 19.2-27.5.5.6 2.4 4.8 4.1 9.2A2203 2203 0 00362 383l14.6 35.9c4.2 10.2 7.9 19.2 8.4 20 .6 1.1 1.9-.2 5.2-5.5l43.3-67.4a30335.4 30335.4 0 0148.6-75.7l4.8-7.3-4.2-1-7.2-2a4362 4362 0 00-56-14.5 239 239 0 01-15.2-4.2c-2.3-.8-.9-3.1 31.7-53.3 6.6-10.2 6.7-10.6 3.8-11.3l-10.3-2.6a300 300 0 00-16-4.1 4440 4440 0 00-40.5-10.6l-7-1.8-23.5-6-31.5-8.3-15-3.8-1.5-.5-1.5-.5c-2.1-.4-24.2-6-31.5-8a11546.7 11546.7 0 00-72.5-18.9c-7.9-2.1-11-2.7-11-2.1zM27 173.8a2729.7 2729.7 0 0027.5 68c.3.3 2.8-3.4 13.8-20.6C88.1 190.4 89 189 87.5 189l-12.4-3.1a838 838 0 00-17.1-4.4c-8.7-2.1-29.4-7.6-30.2-8.1-.5-.3-.8-.1-.8.4zM127.7 216.6c-.4.4 2.9 8.9 8.8 22.9a392.5 392.5 0 016.8 16.5 44 44 0 011.7 4.5c.5 1.7 1.3 1 4.5-4l7.7-11.8a68 68 0 003.8-6.2c0-.2 1.6-2.7 3.5-5.6 1.9-2.9 3.1-5.6 2.7-6-.4-.4-2.9-1.2-5.7-1.8-7.7-1.7-31.4-7.9-32.3-8.5-.5-.3-1.2-.3-1.5 0zM98.4 289.6c2.1 6.5 34.5 84.9 35.2 85.1.5.1 2.9-3 5.4-7 2.4-4 7.6-12.2 11.6-18.2a751 751 0 0025.9-41.3c-.4-.4-21-5.9-25.5-6.8a1523.7 1523.7 0 00-45.5-11.9c-8.1-1.8-7.7-1.8-7.1.1z"/>
</svg>
